# xmcd
#
# Track frame offsets:
#	150
#	19662
#	29756
#	45583
#	60401
#	79678
#	97848
#	110282
#	127061
#	141989
#
# Disc length: 2094 seconds
#
# Revision: 1
# Processed by: cddbd v1.5.2PL0 Copyright (c) Steve Scherf et al.
# Submitted via: audiograbber 1.83.01
#
DISCID=7e082c0a
DTITLE=Hank Williams, Jr. - The Pressure Is On
DYEAR=1981
DGENRE=Country
TTITLE0=A Country Boy Can SurvivE
TTITLE1=The Coalition To Ban Coalitions
TTITLE2=Tennessee Stud
TTITLE3=Ramblin' In My Shoes
TTITLE4=The Pressure Is On
TTITLE5=All My Rowdy Friends (Have Settled Down)
TTITLE6=I Don't Care (If Tomorrow Never Comes)
TTITLE7=Weatherman
TTITLE8=Everytime I Hear That Song
TTITLE9=Ballad of Hank Williams
EXTD=
EXTT0=
EXTT1=
EXTT2=
EXTT3=
EXTT4=
EXTT5=
EXTT6=
EXTT7=
EXTT8=
EXTT9=
PLAYORDER=
